<svg version="1.1" id="Layer_1" xmlns="http://www.w3.org/2000/svg" xmlns:xlink="http://www.w3.org/1999/xlink" x="0px" y="0px"
	 width="100%" viewBox="0 0 307 192" enable-background="new 0 0 307 192" xml:space="preserve">
<path fill="#FFFFFF" opacity="1.000000" stroke="none" 
	d="
M254.000000,1.000000 
	C271.973724,1.000000 289.947418,1.000000 307.960571,1.000000 
	C307.960571,64.880249 307.960571,128.760529 307.960571,193.000000 
	C290.314056,193.000000 272.625702,193.000000 254.294815,192.558929 
	C253.562363,182.447800 253.472412,172.777740 253.525726,162.797791 
	C253.106155,162.014801 252.543304,161.541718 251.523468,161.029343 
	C248.459015,160.990051 245.851517,160.990051 242.964279,160.990051 
	C242.964279,168.295303 242.964279,175.079086 242.964279,181.957367 
	C186.110123,181.957367 129.564102,181.957367 73.039131,181.957367 
	C73.039131,125.125412 73.039131,68.578362 73.039131,11.934487 
	C129.735580,11.934487 186.157730,11.934487 243.062866,11.934487 
	C243.062866,19.005053 243.062866,25.908085 243.062866,32.931343 
	C246.356552,32.931343 249.168259,32.931343 252.319519,32.979713 
	C252.900192,32.314850 253.141312,31.601612 253.464722,30.435244 
	C253.697998,20.321409 253.848999,10.660705 254.000000,1.000000 
M176.937851,124.224464 
	C177.917725,134.317596 175.182053,140.218857 167.152802,144.006744 
	C152.209473,151.056442 129.077148,147.161591 120.910805,126.659790 
	C119.630058,123.444450 118.790222,120.053474 117.768867,116.814613 
	C115.911613,116.814613 114.147034,116.814613 112.228340,116.814613 
	C112.986481,129.673233 113.725632,142.209793 114.479660,154.998795 
	C121.048317,154.891388 118.419189,148.608765 121.605499,146.393356 
	C123.110756,147.333359 124.839874,148.545654 126.684517,149.544632 
	C145.420242,159.691101 164.235443,159.046249 182.085587,148.101685 
	C201.005630,136.501144 202.346985,111.412003 184.637329,98.074615 
	C176.302979,91.797897 166.188156,87.846542 156.765381,83.067764 
	C150.726593,80.005196 144.135818,77.912537 138.405777,74.387993 
	C130.210388,69.346985 129.684067,58.694649 136.898987,52.313919 
	C138.951996,50.498272 141.539917,48.996307 144.142349,48.141098 
	C159.160843,43.205757 173.624405,50.986382 179.972641,67.523178 
	C181.473785,71.433533 183.182312,73.448868 187.608551,71.492073 
	C187.057678,61.040131 186.507950,50.610092 185.949768,40.019558 
	C179.960358,38.881668 181.930679,44.964931 179.017197,46.980564 
	C167.671982,37.153820 153.920624,36.457451 140.106613,39.201237 
	C127.064606,41.791683 118.041756,49.950607 115.499916,63.540363 
	C113.112625,76.303925 117.464096,86.955894 127.863976,94.614403 
	C133.160156,98.514542 139.095016,101.658165 145.030685,104.549377 
	C151.565353,107.732353 158.743118,109.679527 165.048538,113.219818 
	C169.467896,115.701141 172.894409,119.950768 176.937851,124.224464 
z"/>
<path fill="#FFFFFF" opacity="1.000000" stroke="none" 
	d="
M62.000000,193.000000 
	C41.695030,193.000000 21.390060,193.000000 1.042545,193.000000 
	C1.042545,129.117661 1.042545,65.235291 1.042545,1.000000 
	C21.019512,1.000000 41.041096,1.000000 61.531342,1.468657 
	C62.000000,65.624878 62.000000,129.312439 62.000000,193.000000 
z"/>
<path fill="#0B3F83" opacity="1.000000" stroke="none" 
	d="
M253.531342,1.000000 
	C253.848999,10.660705 253.697998,20.321409 253.229004,30.543808 
	C252.600647,31.714117 252.290314,32.322731 251.979980,32.931343 
	C249.168259,32.931343 246.356552,32.931343 243.062866,32.931343 
	C243.062866,25.908085 243.062866,19.005053 243.062866,11.934487 
	C186.157730,11.934487 129.735580,11.934487 73.039131,11.934487 
	C73.039131,68.578362 73.039131,125.125412 73.039131,181.957367 
	C129.564102,181.957367 186.110123,181.957367 242.964279,181.957367 
	C242.964279,175.079086 242.964279,168.295303 242.964279,160.990051 
	C245.851517,160.990051 248.459015,160.990051 251.610580,161.275635 
	C252.563919,162.076706 252.973190,162.592194 253.382462,163.107666 
	C253.472412,172.777740 253.562363,182.447800 253.826157,192.558929 
	C190.645767,193.000000 127.291542,193.000000 63.472061,192.531357 
	C63.004539,128.375137 63.002270,64.687569 63.000000,1.000000 
	C126.354225,1.000000 189.708450,1.000000 253.531342,1.000000 
z"/>
<path fill="#001A6A" opacity="1.000000" stroke="none" 
	d="
M62.750000,1.000000 
	C63.002270,64.687569 63.004539,128.375137 63.003403,192.531357 
	C63.000000,193.000000 62.500000,193.000000 62.250000,193.000000 
	C62.000000,129.312439 62.000000,65.624878 62.000000,1.468657 
	C62.000000,1.000000 62.500000,1.000000 62.750000,1.000000 
z"/>
<path fill="#063B80" opacity="1.000000" stroke="none" 
	d="
M176.851089,123.817581 
	C172.894409,119.950768 169.467896,115.701141 165.048538,113.219818 
	C158.743118,109.679527 151.565353,107.732353 145.030685,104.549377 
	C139.095016,101.658165 133.160156,98.514542 127.863976,94.614403 
	C117.464096,86.955894 113.112625,76.303925 115.499916,63.540363 
	C118.041756,49.950607 127.064606,41.791683 140.106613,39.201237 
	C153.920624,36.457451 167.671982,37.153820 179.017197,46.980564 
	C181.930679,44.964931 179.960358,38.881668 185.949768,40.019558 
	C186.507950,50.610092 187.057678,61.040131 187.608551,71.492073 
	C183.182312,73.448868 181.473785,71.433533 179.972641,67.523178 
	C173.624405,50.986382 159.160843,43.205757 144.142349,48.141098 
	C141.539917,48.996307 138.951996,50.498272 136.898987,52.313919 
	C129.684067,58.694649 130.210388,69.346985 138.405777,74.387993 
	C144.135818,77.912537 150.726593,80.005196 156.765381,83.067764 
	C166.188156,87.846542 176.302979,91.797897 184.637329,98.074615 
	C202.346985,111.412003 201.005630,136.501144 182.085587,148.101685 
	C164.235443,159.046249 145.420242,159.691101 126.684517,149.544632 
	C124.839874,148.545654 123.110756,147.333359 121.605499,146.393356 
	C118.419189,148.608765 121.048317,154.891388 114.479660,154.998795 
	C113.725632,142.209793 112.986481,129.673233 112.228340,116.814613 
	C114.147034,116.814613 115.911613,116.814613 117.768867,116.814613 
	C118.790222,120.053474 119.630058,123.444450 120.910805,126.659790 
	C129.077148,147.161591 152.209473,151.056442 167.152802,144.006744 
	C175.182053,140.218857 177.917725,134.317596 176.851089,123.817581 
z"/>
<path fill="#406198" opacity="1.000000" stroke="none" 
	d="
M252.319519,32.979717 
	C252.290314,32.322731 252.600647,31.714117 253.146698,30.996937 
	C253.141312,31.601612 252.900192,32.314850 252.319519,32.979717 
z"/>
<path fill="#406198" opacity="1.000000" stroke="none" 
	d="
M253.525726,162.797791 
	C252.973190,162.592194 252.563919,162.076706 252.067535,161.314941 
	C252.543304,161.541718 253.106155,162.014801 253.525726,162.797791 
z"/>
</svg>